<?xml version="1.0" encoding="UTF-8" standalone="no"?><!DOCTYPE svg PUBLIC "-//W3C//DTD SVG 1.1//EN" "http://www.w3.org/Graphics/SVG/1.1/DTD/svg11.dtd"><svg width="100%" height="100%" viewBox="0 0 578 449" version="1.1" xmlns="http://www.w3.org/2000/svg" xmlns:xlink="http://www.w3.org/1999/xlink" xml:space="preserve" xmlns:serif="http://www.serif.com/" style="fill-rule:evenodd;clip-rule:evenodd;stroke-linejoin:round;stroke-miterlimit:1.41421;"><g><g id="branch"><path d="M436.186,309.039c-18.819,-0.248 -45.985,44.345 -91.337,67.769c-13.76,7.107 34.136,16.906 34.136,26.631c0,17.589 26.562,0.025 54.529,-20.617c13.717,-10.125 44.21,-19.793 40.11,-28.745c-2.415,-5.273 14.647,-21.362 16.893,-28.512c2.847,-9.067 -8.028,-9.425 -1.549,-17.431c5.243,-6.479 17.74,-5.065 17.74,-13.231c0,-14.314 67.706,-45.673 55.901,-53.89c-1.909,-1.328 -6.639,1.15 -12.303,1.934c-2.41,0.334 -3.587,-8.616 -6.431,-8.074c-23.38,4.454 -98.017,74.293 -107.689,74.166Z" style="fill:#eef1f3;"/></g><g id="feet"><path d="M402.575,304.632c-3.654,0 -20.363,-4.221 -24.116,-5.089c-27.83,-6.438 -25.161,4.485 -15.957,10.991c4.678,3.307 11.022,0.846 15.954,3.874c4.578,2.811 6.442,5.814 6.442,6.117c0,5.417 1.844,21.702 6.616,21.702c4.773,0 11.805,-14.809 17.193,-14.246c0.676,0.071 4.653,4.69 8.828,7.953c1.239,0.968 -13.529,19.787 -12.336,20.361c0.363,0.175 19.996,-14.195 17.092,-17.526c-0.494,-0.566 1.426,0.463 2.145,0.66c1.24,0.34 2.488,0.614 3.724,0.835c1.399,0.249 6.066,6.479 5.084,13.115c-0.229,1.547 4.119,-2.346 1.793,-12.33c-0.701,-3.004 1.269,-1.481 4.363,-0.531c2.773,0.851 10.984,14.93 16.51,12.818c4.209,-1.609 8.211,16.754 8.335,16.011c2.008,-12.039 -2.317,-13.727 -3.185,-14.61c-1.686,-1.716 -10.295,-9.812 -12.245,-11.596c-2.09,-1.91 -4.211,-3.857 -4.765,-4.481c-2.248,-2.527 -5.683,-6.114 -8.957,-9.17c-3.313,-3.092 -7.741,-5.897 -7.363,-5.856c7.562,0.829 14.837,1.535 19.972,1.515c4.615,-0.019 7.024,-0.391 7.987,0.579c11.609,11.691 1.715,-2.397 0.208,-3.263c-1.349,-0.777 -5.835,-1.023 -9.533,-1.747c-5.835,-1.143 -17.287,-1.401 -25.356,-3.383c-4.851,-1.192 -3.638,-3.095 -10.001,-4.584c-4.926,-1.153 -5.82,-8.119 -8.432,-8.119Z"/><path d="M471.829,278.622c-5.627,-13.268 -10.487,-5.989 -10.316,-3.891c0.085,1.043 -9.605,-0.248 -10.579,5.185c-0.33,1.839 4.252,9.151 4.68,17.665c0.282,5.619 17.418,-4.608 18.251,-2.478c2.142,5.478 4.69,12.061 5.717,15.348c0.463,1.48 1.581,-4.13 1.257,-9.909c-0.194,-3.467 -2.002,-7.949 -1.717,-8.329c0.49,-0.655 6.066,9.291 12.107,16.891c3.536,4.448 9.167,12.402 8.709,24.371c-0.247,6.464 9.941,-12.989 -3.588,-28.179c-0.154,-0.174 -14.12,-20.339 -11.551,-21.581c0.894,-0.432 11.555,2.867 16.441,4.051c1.84,0.446 -0.381,6.052 1.194,11.661c0.264,0.938 4.533,-10.245 2.407,-11.766c-3.208,-2.294 -13.138,-8.418 -13.621,-8.8c-1.702,-1.347 -18.936,0.835 -19.391,-0.239Z" style="fill:#030201;"/></g><g id="body"><path d="M466.836,91.323c-51.09,0 -97.174,41.116 -97.174,83.504c0,6.344 -10.698,29.663 -21.05,53.417c-4.686,10.751 -16.397,53.686 -14.238,56.985c1.72,2.63 5.98,4.439 10.883,10.49c5.281,6.518 7.578,15.59 12.26,14.949c13.163,-1.801 40.654,3.635 57.012,-8.53c21.636,-16.09 62.911,-25.844 78.234,-33.767c52.041,-26.911 55.928,-42.508 65.128,-90.649c2.106,-11.021 9.694,-30.027 8.098,-51.191c-0.744,-9.853 -6.067,-34.609 -10.337,-38.889c-17.489,-17.527 -59.928,3.681 -88.816,3.681Z" style="fill:#b48044;"/></g><g id="wings-head-blue"><path d="M482.745,0.015c-32.199,-0.917 -76.656,40.005 -113.083,80.689c-1.625,1.815 -21.15,19.936 -34.733,36.352c-15.222,18.396 -25.682,34.19 -20.57,32.23c1.281,-0.491 -19.329,17.69 -16.405,15.639c1.196,-0.839 -37.637,36.111 -34.418,37.44c1.634,0.674 -1.489,6.484 1.258,6.894c2.734,0.407 3.565,7.92 7.269,7.973c1.445,0.02 -9.39,12.329 -7.816,12.269c1.418,-0.055 2.798,0.766 2.55,2.017c-1.544,7.801 -82.238,77.723 -75.125,74.214c0.927,-0.457 -46.344,27.657 -68.605,42.714c-7.372,4.987 -57.705,25.617 -51.298,27.002c0.884,0.191 3.119,1.335 5.991,0.562c0.788,-0.212 -12.503,8.446 -8.291,8.479c9.946,0.08 27.311,-8.178 47.25,-16.71c0.525,-0.224 -28.195,20.712 -57.259,40.138c-29.544,19.746 -59.657,38.016 -59.459,39.043c1.225,6.34 32.216,-15.796 67.953,-36.799c24.169,-14.204 52.234,-30.124 77.942,-45.68c6.489,-3.926 12.093,-9.5 19.009,-11.573c25.961,-7.78 59.147,-18.85 71.396,-25.006c3.575,-1.798 57.464,-22.923 66.023,-28.187c14.671,-9.025 29.218,-10.788 33.027,-12.49c1.761,-0.787 4.146,-46.452 74.609,-85.172c64.362,-35.369 68.473,-85.851 68.836,-88.906c0.167,-1.41 -5.155,-18.453 -3.421,-17.456c7.03,4.045 17.583,19.544 26.65,24.301c13.825,7.252 43.509,25.849 41.585,17.357c-0.273,-1.207 -8.197,-11.318 -12.138,-13.033c-22.378,-9.737 -32.931,-29.113 -30.925,-29.091c5.882,0.062 17.645,1.701 26.563,2.683c8.343,0.918 16.892,-0.828 22.245,-3.848c2.894,-1.633 -3.473,-30.35 7.76,-34.144c6.656,-2.247 17.974,-0.361 20.392,-1.954c2.316,-1.526 -3.575,-6.433 -27.76,-12.858c-2.019,-0.536 -1.919,-3.462 -2.09,-4.551c-1.59,-10.085 -15.527,-19.943 -18.711,-23.181c-8.224,-8.368 -23.796,-16.719 -46.201,-17.357Z" style="fill:#253158;"/><path d="M568.266,105.969c-1.221,-6.094 -9.092,-21.385 -17.702,-21.083c-1.84,0.065 6.668,4.77 10.334,17.598c0.78,2.728 1.138,17.738 3.353,17.738c2.214,0 4.573,-11.472 4.015,-14.253Z" style="fill:#253158;"/></g></g></svg>