<?xml version="1.0" encoding="UTF-8" standalone="no"?>
<!DOCTYPE svg PUBLIC "-//W3C//DTD SVG 1.1//EN" "http://www.w3.org/Graphics/SVG/1.1/DTD/svg11.dtd">
<svg width="100%" height="100%" viewBox="0 0 400 800" version="1.1" xmlns="http://www.w3.org/2000/svg" xmlns:xlink="http://www.w3.org/1999/xlink" xml:space="preserve" xmlns:serif="http://www.serif.com/" style="fill-rule:evenodd;clip-rule:evenodd;stroke-linejoin:round;stroke-miterlimit:1.41421;">
    <g>
        <rect id="wire" x="0" y="468" width="408" height="22" style="fill:white;"/>
        <g transform="matrix(0.775816,0,0,0.775816,44.892,116.473)">
            <path d="M283.5,183C286.998,194.589 304.762,171.168 324.251,259.661C334.854,307.807 322.089,368.183 325.095,388.184C327.193,402.153 314.144,504.556 315.455,553.023C315.725,563.002 302.029,721.881 278.729,722.88C260.503,723.661 279.478,583.065 278.216,562.525C276.766,538.92 277.855,499.079 270.09,502.131C264.508,504.325 262.087,531.613 265.374,557.801C266.839,569.476 268.657,601.334 265.097,617.089C264.364,620.33 261.461,656.071 263.783,688.462C267.296,737.442 277.292,785.785 273.066,791.312C266.428,799.991 250.405,634.137 239.19,638.588C234.282,640.536 252.725,782.77 245.671,786.193C233.705,792 233.264,658.705 216.239,635.587C200.157,613.747 199.73,557.32 188.965,528.85C179.763,504.513 172.223,486.914 168.746,490C165.308,493.051 161.065,504.065 168.123,552.591C178.364,622.996 213.207,736.859 192.961,736.829C147.222,736.76 104.701,489.225 103.5,486C89.247,447.72 79.637,350.719 73,326.5C64.666,296.09 88.39,191.403 119.241,172.618C122.123,170.863 125.06,155.186 113.329,141.216C102.734,128.6 76.61,134.893 74.93,130.41C71.481,121.207 104.526,122.622 108.223,114.879C113.53,103.762 109.749,96.185 134.463,79.163C176.284,50.357 198.073,48.073 233.027,71.933C268.654,96.252 260.991,108.426 283.5,183Z" style="fill:rgb(7,98,228);"/>
        </g>
    </g>
</svg>
