<?xml version="1.0" encoding="UTF-8" standalone="no"?><!DOCTYPE svg PUBLIC "-//W3C//DTD SVG 1.1//EN" "http://www.w3.org/Graphics/SVG/1.1/DTD/svg11.dtd"><svg width="100%" height="100%" viewBox="0 0 637 499" version="1.1" xmlns="http://www.w3.org/2000/svg" xmlns:xlink="http://www.w3.org/1999/xlink" xml:space="preserve" xmlns:serif="http://www.serif.com/" style="fill-rule:evenodd;clip-rule:evenodd;stroke-linejoin:round;stroke-miterlimit:1.41421;"><g><g id="Branch"><path d="M406.696,407.536c3.814,0.86 3.698,2.662 7.466,3.31c6.544,1.127 14.296,-0.435 20.309,2.121c6.642,2.823 10.614,9.842 18.376,10.728c4.882,0.557 10.907,1.39 14.255,3.842c3.348,2.452 4.429,5.352 7.024,5.468c2.959,0.132 8.68,-2.558 12.823,-1.628c6.446,1.446 12.215,5.752 18.575,9.016c11.041,5.668 -116.239,57.502 -119.159,56.781c-7.926,-1.957 -52.719,-54.946 -53.124,-57.919c-0.529,-3.89 0.463,-16.813 3.668,-21.574c8.402,-12.479 22.758,-30.864 53.67,-11.824c5.337,3.287 7.644,-0.233 16.117,1.679Z" style="fill:#848484;"/></g><g id="Feet"><path d="M349.988,395.069c0.148,0.673 27.808,1.222 28.152,3.202c0.039,0.229 17.895,7.928 17.088,8.493c-0.431,0.302 -1.046,0.982 -2.032,1.201c-2.077,0.46 -12.308,-5.049 -15.969,-4.915c-10.933,0.401 -19.165,5.433 -22.654,5.433c-0.218,0 -6.191,3.798 -10.92,8.952c-3.311,3.61 -3.662,5.092 -6.247,6.482c-0.195,0.105 -3.149,10.901 -3.916,14.249c-1.495,6.532 -8.981,-2.978 -6.19,-7.117c0.697,-1.035 2.084,-2.028 3.497,-4.774c0.684,-1.327 0.76,-3.419 1.027,-3.841c2.932,-4.652 -1.947,-7.519 -1.947,-8.797c0,-1.165 -7.172,-12.026 -2.394,-12.323c0.966,-0.06 22.28,-7.272 22.505,-6.245Z" style="fill:#7c5734;"/></g><g id="white-feathers"><path d="M403.491,203.086c-35.293,-1.18 -48.335,-20.056 -42.739,-23.293c11.437,-6.618 23.314,-29.927 29,-36.246c28.444,-31.611 117.944,-19.102 167.768,-10.537c6.74,1.158 -30.936,18.858 -42.002,26.344c-18.153,12.28 -16.342,41.763 -15.577,49.939c1.035,11.07 -7.293,39.352 -11.321,49.351c-5.281,13.109 -20.064,39.454 -25.279,49.909c-11.441,22.93 -71.25,62.93 -85.062,65.851c-7.076,1.496 -14.828,22.075 -22.81,21.545c-1.37,-0.091 -17.874,7.187 -21.738,13.212c-1.482,2.31 -6.348,2.345 -6.889,2.869c-0.338,0.329 1.058,4.493 0.747,4.815c-0.265,0.274 -3.288,-4.455 -0.772,0.805c0.431,0.902 -4.608,-4.407 -4.436,-3.653c0.281,1.227 0.076,1.957 0.037,3.085c-0.019,0.578 -1.934,-4.195 -2.013,-3.645c-0.747,5.163 0.595,15.211 -2.032,14c-0.943,-0.435 -6.777,-7.952 -15.64,-8.634c-23.486,-1.807 -66.516,4.906 -64.974,-2.512c8.174,-39.335 141.892,-141.895 145.989,-166.556c5.554,-33.425 31.889,-46.243 19.743,-46.649Z" style="fill:#6090d8;"/></g><g id="blue-wings"><path d="M285.559,218.507c14.026,-7.147 75.14,-40.133 76.336,-37.569c1.641,3.519 20.391,9.175 35.771,8.785c7.979,-0.202 43.392,2.29 69.436,19.279c22.504,14.68 32.514,-0.718 32.832,0.878c2.831,14.182 -18.633,73.444 -25.62,78.798c-23.53,18.028 -2.948,-28.004 -63.711,-33.766c-1.523,-0.145 -2.136,6.334 -4.681,11.247c-5.336,10.298 -19.006,28.017 -33.781,46.511c-5.782,7.238 -16.723,21.37 -23.825,25.778c-19.11,11.861 -42.192,34.397 -65.991,50.114c-15.115,9.983 -77.436,53.557 -91.741,57.588c-4.865,1.372 -56.419,33.998 -59.933,31.642c-5.07,-3.399 5.38,-13.005 4.712,-14.136c-0.984,-1.663 -22.496,11.571 -24.779,11.562c-5.345,-0.022 -0.596,-3.947 3.374,-12.24c1.538,-3.212 -9.944,2.829 -8.993,-1.68c1.548,-7.334 -10.995,8.974 -9.7,6.714c1.763,-3.077 -38.732,26.471 -42.56,25.469c-3.081,-0.807 -15.695,8.59 -13.651,4.152c1.471,-3.197 -42.057,-2.653 -38.889,-7.324c14.597,-21.522 88.692,-64.564 95.301,-71.915c33.896,-37.706 44.587,-33.147 61.528,-69.048c6.078,-12.881 51.084,-61.809 82.319,-89.54c12.593,-11.181 36.054,-36.105 46.246,-41.299Z" style="fill:#112645;"/></g><g id="head"><path d="M455.976,43.894c2.959,1.036 -19.673,-13.247 -25.457,-24.527c-0.905,-1.763 12.662,-3.071 11.929,-4.64c-6.463,-13.829 -17.45,-17.678 -7.851,-12.558c8.079,4.311 31.913,25.023 37.185,26.276c1.443,0.343 -25.099,-28.352 -23.567,-27.934c2.433,0.665 16.233,11.857 26.162,19.578c2.161,1.68 0.643,-4.066 2.946,-1.975c7.443,6.76 16.307,20.617 22.177,24.582c2.614,1.767 -4.001,-15.068 -1.758,-13.386c4.878,3.658 10.629,12.304 12.278,13.456c2.938,2.051 9.274,20.986 12.533,24.15c12.861,12.484 21.108,24.169 21.108,31.003c0,2.579 19.795,4.124 39.784,7.475c27.493,4.608 57.119,11.331 52.142,17.047c-8.231,9.451 -59.561,13.63 -105.221,15.058c-5.482,0.172 -27.65,-2.875 -32.903,-2.786c-7.779,0.131 -34.037,26.619 -37.096,27.872c-9.741,3.991 9.031,-28.097 0.352,-24.689c-17.947,7.046 -68.809,9.866 -70.476,8.022c-1.55,-1.714 0.901,-7.572 -0.193,-10.994c-0.718,-2.248 -5.38,-1.657 -5.224,-4.434c0.06,-1.065 5.988,-2.199 5.916,-3.323c-0.106,-1.657 -7.159,-5.109 -7.056,-6.705c0.161,-2.515 5.539,-2.672 5.464,-5.159c-0.066,-2.172 -2.934,-3.4 -3.122,-5.498c-0.154,-1.721 5.941,-4.037 6.305,-5.66c0.826,-3.678 -4.051,-6.45 -2.793,-9.6c0.846,-2.119 4.936,2.621 5.844,0.644c4.615,-10.05 -18.607,-15.055 -15.007,-18.166c3.599,-3.111 26.774,5.813 25.944,-3.289c-0.156,-1.709 -14.298,-6.991 -13.029,-9.058c1.863,-3.034 19.385,-2.901 18.01,-5.193c-2.772,-4.618 -15.609,-8.09 -15.611,-11.437c-0.002,-1.763 13.999,0.426 13.23,-1.377c-2.115,-4.957 -14.901,-12.63 -13.794,-15.312c1.178,-2.855 7.842,3.975 14.798,6.571c1.241,0.463 -3.109,-6.575 -1.499,-5.798c6.086,2.934 18.782,12.415 26.289,14.909c2.161,0.718 4.979,-3.155 7.18,-2.488c4.34,1.316 -10.165,-6.051 -4.983,-6.174c2.359,-0.057 16.841,4.739 19.064,5.517Z" style="fill:#112645;"/></g></g></svg>