<?xml version="1.0" encoding="UTF-8" standalone="no"?>
<!DOCTYPE svg PUBLIC "-//W3C//DTD SVG 1.1//EN" "http://www.w3.org/Graphics/SVG/1.1/DTD/svg11.dtd">
<svg width="100%" height="100%" viewBox="0 0 400 800" version="1.1" xmlns="http://www.w3.org/2000/svg" xmlns:xlink="http://www.w3.org/1999/xlink" xml:space="preserve" xmlns:serif="http://www.serif.com/" style="fill-rule:evenodd;clip-rule:evenodd;stroke-linejoin:round;stroke-miterlimit:1.41421;">
    <g>
        <rect id="wire" x="0" y="468" width="408" height="22"/>
        <path d="M133,61C133.621,61.835 136.547,97.021 137.876,84.374C139.258,71.219 139.076,51.161 141.437,49.494C142.944,48.429 144.673,106.058 146.652,101.701C147.632,99.543 149.659,58.474 150.732,56.554C151.488,55.201 156.243,80.764 156.995,79.239C158.857,75.46 157.788,57.572 159.765,53.67C161.407,50.427 158.159,113.14 160.026,107.604C161.158,104.248 162.332,97.447 163.549,93.157C164.131,91.108 173.785,115.065 175.829,114.639C176.667,114.464 170.511,88.303 171.359,88.158C172.367,87.986 177.371,101.795 178.366,101.582C179.747,101.288 178.128,84.041 179.504,83.848C180.422,83.72 183.333,99.585 184.236,99.442C185.402,99.257 186.553,93.078 187.687,92.906C188.766,92.742 186.837,99.567 187.895,99.38C189.51,99.095 193.087,68.939 194.613,68.932C198.96,68.911 196.151,106.702 200,106.23C202.264,105.952 210.371,67.925 212.242,68.199C214.467,68.525 213.413,92.032 215.005,92.754C216.981,93.65 217.427,57.389 218.203,60.152C222.565,75.69 217.027,112.067 217.887,112.557C219.688,113.581 226.3,84.871 227.686,86.458C228.559,87.458 225.35,107.538 226.051,108.705C228.416,112.64 214.087,157.73 214.845,161.938C215.872,167.642 215.711,179.546 218.932,183.417C222.682,187.922 316.209,213.058 314.826,222.383C314.163,226.85 275.921,225.322 247.872,223.778C235.286,223.086 220.759,219.994 219.51,221.585C209.583,234.224 178.325,239.362 180,251.5C180.546,255.458 182.926,257.721 202.53,270.395C206.775,273.139 207.99,282.782 214.395,287.773C218.132,290.686 223.264,299.003 227.832,302.803C241.756,314.389 250.959,360.701 264.221,422.889C270.549,452.561 266.67,487.818 267.526,526.127C267.775,537.292 268.292,564.469 277.335,590.407C285.46,613.713 290.537,622.362 295.263,634.317C297.213,639.251 300.935,659.575 294.124,667.071C289.979,671.633 275.971,668.531 270.861,668.336C266.008,668.152 263.845,679.698 251.165,675.018C243.279,672.108 226.931,647.364 222.89,601.306C220.241,571.122 185.094,529.293 185.819,532.522C189.081,547.062 201.633,555.874 206.1,570.285C211.139,586.538 208.493,598.507 194.77,585.664C187.154,578.536 170.807,552.743 158.415,539.022C128.404,505.796 98.977,474.656 91.847,459.692C84.751,444.798 65.208,400.079 54.549,377.888C44.128,356.193 43.552,357.048 39.803,340.388C37.223,328.926 39.593,315.86 43.652,303.598C46.752,294.232 46.838,287.333 50.455,279.976C55.116,270.497 63,261.574 63,259.5C63,255.579 66.201,239.468 62.297,232.834C61.761,231.922 51.279,247.868 50.877,246.64C50.275,244.801 60.492,224.193 59.482,222.935C58.07,221.177 43.811,238.229 42.836,236.041C42.163,234.531 60.343,213.203 59.352,212.111C58.539,211.217 43.722,225.362 42.905,224.557C40.402,222.09 53.841,200.398 48.849,202.401C30.646,209.705 62.85,194.278 62.851,193.717C62.853,192.479 44.892,189.246 44.972,188.022C45.033,187.086 69.091,180.162 69.147,179.251C69.182,178.675 54.222,178.104 54.268,177.539C54.344,176.582 62.427,175.641 62.516,174.717C62.607,173.776 49.719,169.856 49.852,168.959C50.043,167.674 62.254,163.443 62.487,162.273C62.676,161.32 48.41,162.376 47.83,161.436C45.178,157.139 63.966,147.896 61.621,142.993C61.175,142.063 74.638,143.06 73.995,141.965C72.325,139.123 61.164,131.271 61.125,128.488C61.113,127.608 83.065,134.68 82.977,133.7C82.798,131.709 61.949,118.76 62.542,116.878C62.777,116.135 83.025,125.374 83.288,124.595C83.529,123.882 77.794,109.184 78.086,108.501C78.48,107.581 96.86,122.635 97.223,121.659C97.71,120.349 84.247,104.07 84.837,102.829C85.356,101.737 97.872,114.622 98.384,113.482C99.21,111.64 90.111,98.829 91.095,97.058C91.517,96.299 104.937,107.532 105.354,106.756C106.187,105.206 99.049,80.734 99.942,79.353C100.764,78.083 112.571,104.787 113.36,103.465C117.501,96.524 118.4,66.086 121.635,63.201C122.752,62.205 127.764,86.355 128.651,85.669C130.22,84.455 132.377,60.163 133,61Z" style="fill:rgb(36,47,51);"/>
    </g>
</svg>
