<?xml version="1.0" encoding="UTF-8" standalone="no"?><!DOCTYPE svg PUBLIC "-//W3C//DTD SVG 1.1//EN" "http://www.w3.org/Graphics/SVG/1.1/DTD/svg11.dtd"><svg width="100%" height="100%" viewBox="0 0 975 633" version="1.1" xmlns="http://www.w3.org/2000/svg" xmlns:xlink="http://www.w3.org/1999/xlink" xml:space="preserve" xmlns:serif="http://www.serif.com/" style="fill-rule:evenodd;clip-rule:evenodd;stroke-linejoin:round;stroke-miterlimit:1.41421;"><g><path d="M873.866,580.185c-35.615,0 -386.54,-66.36 -386.54,-53.39c0,3.117 -130.806,-3.532 -127.623,-3.803c13.792,-1.175 190.343,77.919 255.071,88.174c39.703,6.29 90.532,4.836 120.965,10.559c47.616,8.954 100.761,12.927 100.761,8.089c0,-12.97 72.981,-49.629 37.366,-49.629Z" style="fill:#6e6c5f;"/><path d="M763.666,545.642c-9.571,-3.19 -81.291,-51.099 -87.55,-49.608c-5.458,1.3 -15.156,2.888 -15.156,4.773c0,4.049 54.723,33.636 73.321,52.268c0.962,0.964 -12.629,22.46 -33.489,39.675c-2.498,2.061 15.863,51.361 46.996,32.957c12.631,-7.466 -21.744,6.01 -30.004,-22.911c-2.417,-8.465 21.442,-15.266 26.567,-24.112c11.881,-20.506 44.637,-5.256 69.726,-3.036c4.032,0.356 30.617,-3.005 -50.411,-30.006Z" style="fill:#444;"/><path d="M660.96,554.315c3.796,1.41 -10.652,-32.767 -16.911,-31.276c-5.458,1.3 -42.591,2.019 -44.257,2.903c-13.179,6.991 -25.085,53.359 -9.449,62.802c7.07,4.27 -4.628,-9.06 4.085,-25.837c13.851,-26.673 34.663,-20.429 66.532,-8.592Z" style="fill:#444;"/><path d="M641.854,614.279c0.331,-3.696 11.449,-4.582 8.823,0c-3.784,6.603 -10.255,24.516 -35.758,15.535c-2.355,-0.829 24.749,8.874 26.935,-15.535Z" style="fill:#444;"/><path d="M781.242,222.793c-169.897,15.877 -162.748,119.771 -317.34,165.437c-138.292,40.85 -346.059,144.817 -424.425,187.188c-16.177,8.746 -27.152,27.685 -36.375,35.522c-2.004,1.702 41.254,-13.589 39.587,-11.925c-3.954,3.949 -6.94,10.403 -8.859,14.099c-2.747,5.292 34.338,-9.413 32.789,-5.057c-2.495,7.014 236.127,-131.783 237.532,-123.673c0.683,3.944 17.46,6.91 26.185,8.84c24.784,5.483 133.49,-29.837 140.951,-22.995c26.844,24.616 125.827,69.833 185.1,52.748c140.304,-40.442 276.365,-165.571 261.512,-245.542c-10.172,-54.764 -38.098,-63.853 -136.657,-54.642Z" style="fill:#fff;"/><path d="M757.882,0c-2.959,0 3.033,9.434 0.252,9.855c-8.579,1.299 -28.775,0.465 1.28,25.474c7.625,6.345 -9.962,6.815 -11.432,14.862c-0.859,4.698 14.717,10.666 12.137,15.935c-1.113,2.275 -5.983,4.568 -7.466,6.918c-1.545,2.448 5.201,15.852 2.96,18.029c-22.671,22.022 -58.247,62.9 -84.923,72.555c-15.316,5.543 -83.221,44.157 -135.058,84.91c-17.571,13.813 -45.054,17.28 -52.919,21.073c-77.906,37.575 -217.543,113.112 -212.446,115.001c3.252,1.206 8.764,3.704 15.321,3.576c24.419,-0.475 82.904,-11.607 142.408,-12.991c19.858,-0.462 -428.053,194.323 -419.238,215.666c0.83,2.01 -9.896,16.141 -8.658,17.812c2.67,3.603 420.099,-188.687 425.036,-188.336c18.632,1.325 97.426,-55.906 138.977,-70.309c6.622,-2.295 94.147,-5.561 145.741,-24.993c22.446,-8.454 89.385,-36.876 119.979,-63.012c7.477,-6.388 -1.221,-16.535 4.798,-22.791c4.796,-4.986 79.425,41.035 84.027,36.459c27.528,-27.377 -18.451,-97.112 0.789,-93.793c16.307,2.812 66.837,5.591 52.756,-8.64c-16.793,-16.973 -35.871,-28.7 -42.328,-34.924c-6.51,-6.276 15.42,-74.554 -88.507,-117.307c-25.746,-10.591 -70.616,-21.029 -83.486,-21.029Z" style="fill:#506496;"/></g></svg>