<?xml version="1.0" encoding="UTF-8" standalone="no"?>
<!DOCTYPE svg PUBLIC "-//W3C//DTD SVG 1.1//EN" "http://www.w3.org/Graphics/SVG/1.1/DTD/svg11.dtd">
<svg width="100%" height="100%" viewBox="0 0 400 800" version="1.1" xmlns="http://www.w3.org/2000/svg" xmlns:xlink="http://www.w3.org/1999/xlink" xml:space="preserve" xmlns:serif="http://www.serif.com/" style="fill-rule:evenodd;clip-rule:evenodd;stroke-linejoin:round;stroke-miterlimit:1.41421;">
    <g>
        <rect id="wire" x="0" y="468" width="408" height="22" style="fill:white;"/>
        <g transform="matrix(1.08091,0,0,1.07687,-4.84425,-51.1202)">
            <path d="M179,180C182.492,178.621 186.231,180.827 190.051,185.6C191.448,187.346 188.303,165.866 190.267,167.818C194.141,171.669 193.69,175.65 196.939,179.73C199.3,182.694 195.047,149.005 200,153.768C206.478,159.998 204.818,156.43 209.209,164.661C210.313,166.731 217.352,146.25 222.93,135.756C225.845,130.272 231.951,129.963 235.175,125.208C243.596,112.789 249.826,99.153 258.589,101.087C263.028,102.067 255.607,105.235 258.434,108.403C260.371,110.573 254.425,119.906 255.129,123.196C256.493,129.575 255.276,136.97 255.592,145.085C255.782,149.969 272.814,195.114 272.711,200.456C272.679,202.149 278.012,206.567 284.763,206.36C305.811,205.712 345.741,208.581 344.093,216.16C342.249,224.637 271.22,233.92 269.953,239.563C264.886,262.134 254.379,280.992 248.489,296.745C246.612,301.765 262.589,338.542 263,341.5C266.317,365.377 221.487,483.087 203.427,482.335C199.569,482.174 188.184,567.622 179.141,572.856C176.429,574.425 201.484,763.465 172.472,788.4C168.122,792.138 165.146,790.876 159.997,781.682C156.554,775.534 147.883,788.967 145.572,786.54C98.963,737.595 116.261,635.255 116.638,628.502C118.766,590.362 112.83,536.825 108,537C61.909,538.669 63.42,403.055 61,382.5C51.713,303.617 102.49,276.738 115.141,270.207C121.548,266.899 122.53,202.3 179,180Z" style="fill:rgb(7,98,228);"/>
        </g>
    </g>
</svg>
