<?xml version="1.0" encoding="UTF-8" standalone="no"?><!DOCTYPE svg PUBLIC "-//W3C//DTD SVG 1.1//EN" "http://www.w3.org/Graphics/SVG/1.1/DTD/svg11.dtd"><svg width="100%" height="100%" viewBox="0 0 418 691" version="1.1" xmlns="http://www.w3.org/2000/svg" xmlns:xlink="http://www.w3.org/1999/xlink" xml:space="preserve" xmlns:serif="http://www.serif.com/" style="fill-rule:evenodd;clip-rule:evenodd;stroke-linejoin:round;stroke-miterlimit:1.41421;"><g><path d="M358.714,404.079c59.278,0 42.819,69.249 23.458,74.282c-47.945,12.464 -269.441,123.427 -346.317,140.939c-57.797,13.166 -32.809,-59.659 -13.838,-66.006c61.993,-20.741 277.42,-149.215 336.697,-149.215Z" style="fill:#414646;"/><path d="M281.18,512.484c-0.871,-5.543 -0.903,-13.896 -5.324,-23.679c-3.217,-7.119 -9.187,-14.473 -9.492,-22.402c-3.318,-86.368 -10.91,-33.9 -3.801,-26.851c2.766,2.744 10.383,9.234 14.831,20.036c3.032,7.361 3.497,17.481 5.432,25.428c3.347,13.747 -1.013,31.495 -1.646,27.468Z" style="fill:#665b54;"/><path d="M252.716,0.842c12.687,0 28.753,-4.253 55.503,6.357c15.396,6.107 55.404,23.456 46.384,33.194c-3.742,4.038 55.594,3.876 62.891,20.563c4.142,9.472 -56.226,7.056 -66.039,16.992c-41.156,41.677 -4.916,82.939 1.819,97.7c12.423,27.228 -5.495,113.498 -7.209,120.96c-19.382,84.353 -48.073,147.401 -83.414,156.218c-70.159,17.506 -87.935,178.766 -84.342,189.623c5.913,17.866 -11.516,46.352 -47.521,33.296c-24.793,-8.99 -14.562,45.96 -58.492,-11.536c-18.411,-24.097 34.323,-92.927 33.039,-136.751c-0.369,-12.609 -7.407,-17.3 -8.219,-29.92c-0.554,-8.608 16.522,-23.814 10.183,-29.731c-6.784,-6.332 -13.009,-28.602 -18.477,-37.068c-5.673,-8.784 -12.031,0.614 -14.49,-9.815c-12.381,-52.503 -24.703,-145.225 -1.07,-192.844c13.677,-27.557 48.339,-127.265 89.946,-182.195c22.039,-29.097 72.296,-45.043 89.508,-45.043Z" style="fill:#3664cd;"/><path d="M267.656,114.426c3.107,-3.915 18,22.506 32.97,12.714c18.065,-11.818 33.46,-15.944 31.974,-6.599c-1.284,8.07 3.877,20.279 7.145,28.839c1.762,4.614 9.616,11.216 14.272,25.876c7.173,22.585 4.944,61.425 1.146,66.21c-6.264,7.892 -4.854,-58.808 -16.542,-70.057c-5.695,-5.482 -29.519,-37.489 -66.431,-41.721c-16.857,-1.933 -6.957,-12.21 -4.534,-15.262Z" style="fill:#a9694e;"/></g></svg>