<?xml version="1.0" encoding="UTF-8" standalone="no"?>
<!DOCTYPE svg PUBLIC "-//W3C//DTD SVG 1.1//EN" "http://www.w3.org/Graphics/SVG/1.1/DTD/svg11.dtd">
<svg width="100%" height="100%" viewBox="0 0 400 800" version="1.1" xmlns="http://www.w3.org/2000/svg" xmlns:xlink="http://www.w3.org/1999/xlink" xml:space="preserve" xmlns:serif="http://www.serif.com/" style="fill-rule:evenodd;clip-rule:evenodd;stroke-linejoin:round;stroke-miterlimit:1.41421;">
    <g>
        <path d="M252.403,161.057C266.803,206.074 328.148,237.423 323.455,397.795C323.433,398.548 323.16,399.269 323,400C321.845,405.265 320.187,499.954 292.712,531.487C289.761,534.874 344.606,623.648 341.193,643.471C339.851,651.269 324.266,657.336 312.563,652.153C292.934,643.46 273.343,617.626 270.668,621.228C264.181,629.966 251.692,641.592 239.198,644.758C219.459,649.76 198.213,642.62 189.225,637.905C186.468,636.458 177.219,625.681 188.313,562.782C195.156,523.984 185.296,501.358 181.006,499.452C167.81,493.589 154.946,489.481 143.016,489.643C119.458,489.961 -6.307,421.382 83,217C86.357,209.317 87.625,157.749 78.482,151.786C67.323,144.509 45.767,138.907 47.065,134.294C50.727,121.287 75.927,131.78 88.549,125.557C113.471,113.269 105.538,95.938 143.002,96.048C186.783,96.176 242.714,130.772 252.403,161.057Z" style="fill:rgb(66,107,231);"/>
        <rect id="wire" x="0" y="468" width="408" height="22"/>
    </g>
</svg>
