<?xml version="1.0" encoding="UTF-8" standalone="no"?><!DOCTYPE svg PUBLIC "-//W3C//DTD SVG 1.1//EN" "http://www.w3.org/Graphics/SVG/1.1/DTD/svg11.dtd"><svg width="100%" height="100%" viewBox="0 0 821 609" version="1.1" xmlns="http://www.w3.org/2000/svg" xmlns:xlink="http://www.w3.org/1999/xlink" xml:space="preserve" xmlns:serif="http://www.serif.com/" style="fill-rule:evenodd;clip-rule:evenodd;stroke-linejoin:round;stroke-miterlimit:1.41421;"><g><path d="M549.541,522.457c-0.848,-16.714 -17.542,-40.734 -18.967,-54.147c-1.267,-11.93 -10.558,-29.719 -11.057,-38.733c-2.306,-41.691 12.286,-46.688 29.597,-47.426c14.078,-0.601 18.001,24.006 34.306,63.23c8.035,19.332 4.285,39.241 13.771,64.433c5.804,15.412 15.328,43.787 16.048,60.655c0.564,13.244 -0.371,19.389 -0.518,31.86c-0.089,7.608 -55.91,12.201 -55.873,-7.712c0.056,-29.912 -6.986,-65.844 -7.307,-72.16Z" style="fill:#e4c68d;"/><path d="M561.568,417.931c11.956,1.646 27.736,6.95 34.449,20.428c7.381,14.818 4.967,38.04 1.618,42.741c-9.995,14.025 -11.178,-33.71 -36.551,-33.71c-9.764,0 -18.331,0.073 -24.118,3.654c-5.816,3.599 2.754,35.351 -1.806,33.406c-17.249,-7.356 -14.974,-36.416 -8.769,-48.508c5.748,-11.199 14.931,-20.8 35.177,-18.011Z" style="fill:#2c2c2c;"/><path d="M455.024,442.624c7.378,-2.58 67.555,51.389 107.314,65.27c1.964,0.686 38.804,-11.043 47.946,0.269c10.396,12.864 5.764,44.207 3.134,43.834c-4.121,-0.584 -5.837,-12.826 -9.468,-18.985c-8.27,-14.028 -19.849,-25.185 -45.244,0.577c-3.149,3.194 -5.468,13.131 -5.216,17.885c0.113,2.134 2.011,14.579 2.404,16.555c2.174,10.921 5.719,19.774 1.56,18.999c-10.576,-1.97 -9.508,-0.293 -18.661,-25.728c-2.04,-5.667 11.654,-30.802 6.945,-36.335c-16.843,-19.791 -113.857,-73.845 -113.857,-82.166c0,-4.291 15.289,2.572 23.143,-0.175Z" style="fill:#2c2c2c;"/><path d="M242.43,333.797c0,-7.81 77.908,-67.146 87.604,-73.637c20.753,-13.894 113.052,-74.473 121.428,-90.817c10.037,-19.585 115.403,-66.643 117.976,-69.207c10.546,-10.512 19.14,-24.407 28.901,-36.083c12.95,-15.491 30.182,-29.16 45.361,-40.642c42.73,-32.322 68.053,-23.806 89.988,-17.333c26.668,7.87 43.535,22.523 45.418,29.887c0.853,3.334 1.696,6.693 2.5,10.032c2.101,8.731 37.577,29.09 38.568,36.739c0.809,6.243 -36.992,10.569 -39.434,12.572c-3.135,2.571 -2.423,16.184 -4.713,32.061c-2.321,16.095 -1.95,38.329 -5.968,52.288c-3.568,12.394 -9.113,49.282 -23.875,80.614c-27.117,57.557 -124.07,161.108 -224.472,186.236c-26.186,6.553 -99.016,9.03 -129.383,3.411c-14.115,-2.612 -79.102,2.144 -139.522,14.716c-24.699,5.14 -70.854,20.998 -91.735,20.547c-3.559,-0.077 -38.781,18.462 -71.924,35.598c-25.652,13.263 -62.334,41.775 -79.876,49.109c-11.367,4.752 -6.666,-21.158 -8.997,-22.71c-7.279,-4.846 132.353,-83.03 135.049,-87.801c6.268,-11.094 110.874,-85.905 121.437,-93.895c15.344,-11.605 -85.976,38.035 -91.975,30.582c-1.943,-2.414 82.301,-52.611 81.012,-54.579c-2.181,-3.331 -3.368,-5.963 -3.368,-7.688Z" style="fill:#0854ba;"/></g></svg>