<?xml version="1.0" encoding="UTF-8" standalone="no"?>
<!DOCTYPE svg PUBLIC "-//W3C//DTD SVG 1.1//EN" "http://www.w3.org/Graphics/SVG/1.1/DTD/svg11.dtd">
<svg width="100%" height="100%" viewBox="0 0 400 800" version="1.1" xmlns="http://www.w3.org/2000/svg" xmlns:xlink="http://www.w3.org/1999/xlink" xml:space="preserve" xmlns:serif="http://www.serif.com/" style="fill-rule:evenodd;clip-rule:evenodd;stroke-linejoin:round;stroke-miterlimit:1.41421;">
    <g>
        <rect id="wire" x="0" y="468" width="408" height="22"/>
        <path d="M275.5,237C289.472,237 298.006,390.051 261,454C252.791,468.186 209.541,543 190.5,543C189.608,543 184.189,560.945 182.38,591.826C180.667,621.064 188.36,659.982 167.76,677.211C155.84,687.18 147.103,656.46 142.944,660.985C136.438,668.066 129.411,672.163 121.945,671.515C100.156,669.627 120.722,613.719 125.354,569.901C128.922,536.156 122.875,510.257 122.603,508.551C117.42,476.052 82.485,452.177 77,441C19.875,324.597 81.643,210.799 95.725,205.24C96.746,204.837 98.186,190.497 98.969,173.051C99.334,164.902 61.412,156.963 62.985,152.729C66.577,143.06 105.1,138.709 107.746,134.199C112.214,126.587 119.005,120.099 129.414,115.634C181.333,93.363 212.47,122.301 229.558,135.798C288.678,182.491 272.999,237 275.5,237Z" style="fill:rgb(7,98,228);"/>
    </g>
</svg>
