<?xml version="1.0" encoding="UTF-8" standalone="no"?>
<!DOCTYPE svg PUBLIC "-//W3C//DTD SVG 1.1//EN" "http://www.w3.org/Graphics/SVG/1.1/DTD/svg11.dtd">
<svg width="100%" height="100%" viewBox="0 0 400 800" version="1.1" xmlns="http://www.w3.org/2000/svg" xmlns:xlink="http://www.w3.org/1999/xlink" xml:space="preserve" xmlns:serif="http://www.serif.com/" style="fill-rule:evenodd;clip-rule:evenodd;stroke-linejoin:round;stroke-miterlimit:1.41421;">
    <g>
        <rect id="wire" x="0" y="468" width="408" height="22"/>
        <g transform="matrix(0.790935,0,0,0.790935,39.1148,113.896)">
            <path d="M300.5,200C301.776,201.124 302.793,204.166 304.68,209.961C306.579,215.791 326.656,199.113 340.807,248.278C347.15,270.317 339.163,360.496 332.273,368.911C318.119,386.199 308.527,464.211 292.132,465C287.656,465.215 271.251,517.263 253.299,561.027C244.634,582.149 226.541,602.807 221.085,614.693C216.827,623.971 191.874,653.734 191.328,656.779C187.734,676.819 186.358,701.53 180.43,703.004C173.032,704.843 175.661,690.301 173.711,680.386C172.654,675.01 170.548,675.416 169.016,671.18C166.698,664.774 163.853,686.774 158.574,664.809C157.632,660.892 164.793,643.13 163.554,642.405C156.021,637.992 144.172,619.022 140.3,621.59C133.153,626.331 127,627.607 121.613,630.783C111.886,636.516 117.617,690.194 106.791,690.08C106.435,690.076 106.283,687.358 106.067,683.545C106.003,682.403 102.933,690.158 102.851,688.849C102.204,678.489 103.8,655.13 98.259,656.208C86.402,658.516 70.75,703.963 63.877,692.148C60.823,686.899 99.083,606.414 98.654,601.625C93.787,547.292 103.962,433.891 102.611,433.671C98.159,432.944 98.982,444.565 89.5,446C78.153,447.717 79.572,392.557 92.636,342.821C101.603,308.685 108.709,273.782 110,260.5C111.87,241.254 137.115,205.737 150.512,199.257C160.196,194.573 157.169,191.065 169.318,186.406C171.901,185.416 152.264,167.367 149.898,134.218C149.565,129.559 122.847,130.152 124.975,127.654C140.064,109.945 149.826,117.327 150.491,115.208C151.525,111.914 176.168,54.411 222.291,57.555C314.521,63.841 297.821,197.641 300.5,200Z" style="fill:rgb(18,25,51);"/>
        </g>
    </g>
</svg>
