<?xml version="1.0" encoding="UTF-8" standalone="no"?><!DOCTYPE svg PUBLIC "-//W3C//DTD SVG 1.1//EN" "http://www.w3.org/Graphics/SVG/1.1/DTD/svg11.dtd"><svg width="100%" height="100%" viewBox="0 0 573 768" version="1.1" xmlns="http://www.w3.org/2000/svg" xmlns:xlink="http://www.w3.org/1999/xlink" xml:space="preserve" xmlns:serif="http://www.serif.com/" style="fill-rule:evenodd;clip-rule:evenodd;stroke-linejoin:round;stroke-miterlimit:1.41421;"><g><path d="M521.731,499.813c27.618,0 17.972,30.296 0.193,20.542c-7.563,-4.149 -172.282,-15.85 -172.282,-24.476c0,-3.749 -1.52,-9.576 5.739,-11.659c18.027,-5.174 150.733,15.593 166.35,15.593Z" style="fill:#174844;"/><path d="M379.527,467.69c12.119,0 63.604,4.845 63.604,10.206c0,1.641 5.716,3.625 7.756,12.717c0.758,3.379 -23.38,-1.52 -22.999,2.449c0.156,1.628 -3.599,0.788 -4.358,3.318c-1.813,6.049 -1.715,16.796 0.042,21.423c1.096,2.886 6.585,-4.476 5.957,-20.17c-0.078,-1.944 6.592,11.752 7.315,12.741c1.608,2.198 14.679,0.079 14.673,2.558c-0.024,10.054 -28.886,28.686 -28.886,24.385c0,-0.491 -3.266,18.354 16.666,9.134c6.478,-2.996 -11.918,14.797 -20.717,5.441c-4.355,-4.631 -4.624,-14.12 -5.111,-14.441c-2.146,-1.413 -18.348,-5.037 -16.626,-24.828c0.048,-0.55 16.577,23.201 14.007,12.183c-2.433,-10.428 0.609,-32.347 -9.193,-38.114c-12.672,-7.457 -40.979,1.434 -44.862,-5.528c-3.243,-5.815 19.789,-13.474 22.732,-13.474Z" style="fill:#5b596c;"/><path d="M318.054,528.129c5.9,0 22.306,-1.537 22.306,0.039c0,1.575 -12.487,6.45 -18.387,6.45c-5.9,0 -22.693,-10.753 -22.693,-12.328c0,-1.576 12.874,5.839 18.774,5.839Z" style="fill:#5b596c;"/><path d="M351.285,156.473c26.945,-9.177 19.828,-77.619 30.491,-102.112c16.974,-38.991 46.383,-53.329 69.083,-54.255c42.722,-1.743 71.906,18.319 85.226,33.626c5.954,6.841 6.725,14.619 7.528,14.779c14.461,2.878 31.97,25.728 28.251,26.139c-8.339,0.922 -26.194,-2.591 -31.968,3.103c-3.826,3.772 -11.156,13.864 -16.362,25.7c-8.352,18.99 -13.798,41.766 -9.787,44.851c26.58,20.446 36.762,49.645 36.762,61.55c0,12.294 -11.615,102.543 -42.988,139.376c-4.2,4.932 -2.789,-5.068 -25.192,15.849c-18.056,16.859 -101.292,114.941 -123.793,127.915c-6.422,3.703 -34.476,36.303 -64.98,62.364c-60.011,51.272 -146.591,109.58 -153.702,118.54c-24.938,31.422 -106.045,167.709 -62.075,38.94c0.721,-2.112 -3.57,2.663 -5.362,3.948c-3.869,2.776 -31.505,36.229 -35.535,37.382c-2.421,0.693 17.41,-31.155 15.153,-29.674c-3.9,2.56 -11.252,3.614 -6.418,-10.969c8.988,-27.113 -52.445,60.121 -44.987,35.572c4.175,-13.743 117.586,-155.752 125.622,-177.091c21.58,-57.307 48.354,-128.079 69.445,-172.07c8.939,-18.644 20.659,-38.962 21.949,-44.013c4.251,-16.654 33.509,-60.792 62.639,-109.097c21.778,-36.114 39.478,-79.617 71,-90.353Z" style="fill:#443f78;"/></g></svg>