<?xml version="1.0" encoding="UTF-8" standalone="no"?>
<!DOCTYPE svg PUBLIC "-//W3C//DTD SVG 1.1//EN" "http://www.w3.org/Graphics/SVG/1.1/DTD/svg11.dtd">
<svg width="100%" height="100%" viewBox="0 0 400 800" version="1.1" xmlns="http://www.w3.org/2000/svg" xmlns:xlink="http://www.w3.org/1999/xlink" xml:space="preserve" xmlns:serif="http://www.serif.com/" style="fill-rule:evenodd;clip-rule:evenodd;stroke-linejoin:round;stroke-miterlimit:1.41421;">
    <g>
        <rect id="wire" x="0" y="468" width="408" height="22"/>
        <g transform="matrix(0.731453,0,0,0.731453,57.6347,137.798)">
            <path d="M111,147C119.668,133.852 126.879,109.242 145.157,82.374C178.94,32.713 222.671,39.097 239.171,42.45C267.331,48.171 297.288,65.198 302.663,81.726C303.79,85.193 304.687,88.8 305.376,92.527C306.184,96.899 339.676,99.049 337.794,106.25C336.245,112.183 293.245,106.207 292.914,111.969C292.262,123.299 289.375,131.991 293.027,146.799C294.757,153.813 307.048,156.353 312.323,163.925C343.994,209.394 322.16,304.185 314.643,329.429C306.001,358.456 208.735,577.986 198.03,585.999C189.193,592.613 175.449,623.816 159.817,647.589C157.144,651.655 163.772,702.501 142.111,710.257C132.73,713.617 123.595,677.98 118.257,681.399C112.35,685.181 89.964,701.849 82.88,693.955C70.161,679.783 96.864,658.711 92.995,648.685C90.661,642.637 78.522,635.302 23.216,701.905C19.52,706.355 16.446,695.132 17.451,680.407C18.171,669.856 29.702,636.643 39.488,606.983C48.072,580.966 55.068,557.593 55.554,555.858C72.245,496.172 78.213,463.631 66.392,435.118C66.221,434.706 59.39,466.228 57.269,507.898C56.635,520.336 56.511,552.082 55.554,555.858C51.252,572.818 35.173,623.767 30.503,634.065C8.883,681.743 44.713,438.611 44.592,421.903C44.298,381.271 64.648,294.656 64,287.5C61.79,263.082 67.517,229.171 78.709,202.474C90.954,173.267 107.974,151.591 111,147Z" style="fill:rgb(32,93,137);"/>
        </g>
        <g transform="matrix(1.50593,0,0,1.77012,10.3914,-452.514)">
            <path d="M52.5,562C53.493,562 56.454,536.577 60.411,518.919C63.559,504.868 67.872,497.552 68.478,498.777C69.416,500.673 73.585,514.652 71.91,531.331C69.602,554.311 61,582.044 61,587C61,600.798 57.191,612 52.5,612C49.507,612 45.902,610.333 44.387,603.449C43.91,601.281 44.03,598.055 43.799,595.496C43.613,593.444 44,589.223 44,587C44,573.202 47.809,562 52.5,562Z" style="fill:rgb(32,93,137);"/>
        </g>
    </g>
</svg>
