<?xml version="1.0" encoding="UTF-8" standalone="no"?><!DOCTYPE svg PUBLIC "-//W3C//DTD SVG 1.1//EN" "http://www.w3.org/Graphics/SVG/1.1/DTD/svg11.dtd"><svg width="100%" height="100%" viewBox="0 0 805 723" version="1.1" xmlns="http://www.w3.org/2000/svg" xmlns:xlink="http://www.w3.org/1999/xlink" xml:space="preserve" xmlns:serif="http://www.serif.com/" style="fill-rule:evenodd;clip-rule:evenodd;stroke-linejoin:round;stroke-miterlimit:1.41421;"><g id="white-feathers"><path d="M568.802,240.15c32.802,-35.286 36.686,-82.585 76.386,-121.818c15.35,-15.171 47.538,-21.993 62.843,-32.334c24.969,-16.87 63.864,-22.469 64.676,-21.31c1.962,2.8 9.622,77.576 -1.181,82.822c-4.545,2.207 63.06,66.719 0.187,222.297c-20.721,51.273 -65.192,91.974 -115.917,118.576c-83.715,43.903 -175.329,34.784 -233.282,48.304c-38.956,9.089 -78.471,17.776 -114.437,32.817c-45.752,19.134 -157.317,82.276 -160.079,81.988c-14.548,-1.518 84.574,-93.747 129.859,-138.013c70.134,-68.557 229.723,-207.471 290.945,-273.329Z" style="fill:#0d81c5;"/><g id="blue-feathers"><path d="M549.616,107.931c26.318,-48.657 78.955,-145.971 183.948,-92.178c13.052,6.687 25.173,21.908 34.343,27.198c6.12,3.53 14.609,2.348 20.673,4.54c5.612,2.029 12.327,2.337 15.709,8.615c1.065,1.976 -7.982,4.612 -12.179,6.491c-5.766,2.581 -14.704,6.706 -22.42,8.996c-9.692,2.876 -24.964,2.437 -35.731,8.258c-20.244,10.945 -68.265,39 -85.736,57.411c-1.657,1.746 67.05,4.664 69.384,5.247c20.755,5.189 17.018,49.725 11.072,69.668c-42.124,141.286 -277.917,220.193 -296.901,230.817c-6.858,3.838 -186.006,116.723 -193.829,122.406c-14.152,10.281 -101.623,103.95 -102.643,104.796c-7.747,6.434 -15.242,18.128 -26.768,27.385c-2.812,2.258 -26.976,27.752 -29.328,25.124c-1.661,-1.857 16.152,-27.829 16.361,-28.824c0.069,-0.327 0.333,-0.659 -0.109,-0.321c-11.03,8.438 -20.889,11.756 -22.097,8.008c-0.599,-1.857 42.263,-36.16 43.528,-38.023c5.464,-8.047 11.638,-19.81 7.856,-24.081c-3.69,-4.167 -26.494,1.828 -52.471,12.308c-13.861,5.592 -29.051,14.612 -41.446,18.993c-14.704,5.196 -26.758,5.233 -30.788,4.628c-1.856,-0.279 55.116,-43.148 57.821,-45.017c2.454,-1.695 29.203,-22.926 34.547,-27.28c44.548,-36.295 237.966,-225.702 238.541,-227.134c1.783,-4.447 6.371,-10.108 2.389,-12.801c-4.205,-2.843 -8.595,-0.739 -12.148,-1.321c-1.817,-0.298 -4.054,-5.902 0.063,-13.284c3.435,-6.159 95.48,-122.138 141.787,-160.053c17.688,-14.482 63.611,-58.542 86.572,-80.572" style="fill:#0024bf;"/></g></g></svg>